<?xml version="1.0" encoding="UTF-8"?>
<!DOCTYPE svg PUBLIC "-//W3C//DTD SVG 1.1//EN" "http://www.w3.org/Graphics/SVG/1.1/DTD/svg11.dtd">
<!-- Creator: CorelDRAW 2018 (64-Bit Versione di prova) -->
<svg xmlns="http://www.w3.org/2000/svg" xml:space="preserve" width="135.78mm" height="106.47mm" version="1.1" style="shape-rendering:geometricPrecision; text-rendering:geometricPrecision; image-rendering:optimizeQuality; fill-rule:evenodd; clip-rule:evenodd"
viewBox="0 0 14043.11 11011.76"
 xmlns:xlink="http://www.w3.org/1999/xlink">
 <defs>
  <style type="text/css">
   <![CDATA[
    .fil2 {fill:#020202}
    .fil9 {fill:#040100}
    .fil8 {fill:#050101}
    .fil11 {fill:#646464}
    .fil4 {fill:#70C2D2}
    .fil7 {fill:#897130}
    .fil3 {fill:#A0E1EA}
    .fil10 {fill:#AEAEAE}
    .fil13 {fill:#C9C9C9}
    .fil12 {fill:#CA3737}
    .fil1 {fill:#EA4847}
    .fil5 {fill:#EB6A6A}
    .fil6 {fill:#F5C955}
    .fil0 {fill:#020100;fill-opacity:0.972549}
    .fil14 {fill:#CC9758;fill-opacity:0.992157}
   ]]>
  </style>
 </defs>
 <g id="Livello_x0020_1">
  <metadata id="CorelCorpID_0Corel-Layer"/>
  <path class="fil0" d="M14043.11 6817.64c-6.12,81.87 -12.26,163.73 -18.38,245.6 -86.15,88.27 -166.42,182.87 -240.76,283.83 -348.67,392.32 -685.38,797.05 -1010.16,1214.12 -36.29,39.79 -79.6,68.55 -129.94,86.33 -174.74,0.99 -346.9,-21.06 -516.43,-66.1 -508.14,-115.77 -1016.29,-231.57 -1524.43,-347.34 -787.43,298.46 -1573.86,600.89 -2359.25,907.36 -74.14,12.74 -146.9,7.3 -218.3,-16.34 -448.1,-157.88 -893.04,-323.84 -1334.81,-497.81 -335.87,276.33 -667.93,557.89 -996.22,844.72 -45.07,20.28 -91.92,35.08 -140.52,44.37 -792.04,-50.14 -1584.1,-100.25 -2376.14,-150.39 -502.6,192.75 -1002.38,393.14 -1499.38,601.25 -99.09,40.69 -201.52,65.03 -307.32,73.04 -346.83,-135.81 -693.41,-271.51 -1039.74,-407.11 -238.68,-76.83 -305.1,-228.18 -199.27,-453.98 113.74,-103.69 238.24,-117.23 373.5,-40.65 294.81,132.79 591.7,260.19 890.67,382.23 354.55,-128.14 707.58,-261.79 1059.06,-400.95 -501.21,-280.56 -808.11,-701.43 -920.83,-1262.62 -371.8,40.45 -741.78,95.09 -1109.91,163.91 -130.91,-28.51 -211.88,-107.76 -242.91,-237.71 -52.41,-357.03 -112.95,-709.14 -181.63,-1056.36 6.81,-90.95 13.62,-181.93 20.43,-272.89 158.59,-106.16 336.18,-156.88 532.78,-152.21 -97.05,-648.36 -199.53,-1296.33 -307.3,-1943.88 -31.06,-158.76 27.48,-268.71 175.61,-329.87 199.26,-35.39 398.56,-70.77 597.94,-106.18 -276.56,99.77 1218.85,-1009.49 2032.07,-1842.71 1.56,-207.1 -42.31,-572.86 -76.91,-779.85 34.46,-221.54 158.83,-294.55 373.12,-219.06 57.43,27.16 95.3,71.16 113.61,131.99 127.55,749.49 249.79,1499.57 366.69,2250.18 187.77,-17.75 256.13,-25.36 439.01,-71.32 -139.28,-823.21 -274.26,-1647.41 -404.92,-2472.57 -11.4,-92.33 -4.58,-183.29 20.43,-272.89 15.61,-38.09 40.75,-68.23 75.37,-90.4 1285.24,-225.2 1950.89,-343.68 3240.63,-547.76 378.94,-41.5 684.94,86.59 917.95,384.28 254.92,424.73 520.95,842.53 798.04,1253.41 852.1,105.87 1703.76,215.32 2554.88,328.43 441.94,117.89 718.18,399.25 828.67,844.09 81.48,500.04 162.98,1000.08 244.47,1500.13 10.36,13.31 23.32,23.45 38.88,30.36 119.38,-22.76 239.69,-41.2 360.88,-55.32 78.53,9.36 144.7,41.75 198.54,97.19 98.94,436.44 180.29,877.03 244.09,1321.73 -9.37,118.58 -70.07,196.36 -182.11,233.33 -332.2,61.61 -665.45,114.43 -999.74,158.44 58.82,744.82 -205.43,1342.46 -792.78,1792.94 356.88,95.72 717.3,168.42 1081.32,218.13 379.51,-484.34 771.7,-958.07 1176.58,-1421.21 158.48,-58.85 283.45,-17.5 374.88,124.1zm-10855.77 -4143.93c46.51,296.59 92.95,592.75 139.3,888.55 -275.33,32.77 -1287.29,196.76 -1558.16,251.18 -36.65,-88.66 1396.75,-1177.56 1418.85,-1139.73zm5182.57 4048.63c27.29,2.04 54.59,4.09 81.86,6.12 136.77,613.76 487.5,1060.76 1052.17,1341.06 35.01,20.91 33.65,39.08 -4.09,54.57 -443.81,179.73 -890.87,347.5 -1341.13,503.34 -478.74,-161.99 -955.53,-330.32 -1430.31,-504.95 -97.06,-30.35 -189.4,-18.95 -276.96,34.15 -332.4,286.12 -664.84,572.25 -997.24,858.36 -292.46,-3.58 -583.51,-25.36 -873.23,-65.35 510.99,-455.53 755.04,-1027.25 732.08,-1715.16 1022.22,-170.96 2041.19,-341.67 3056.86,-512.13z"/>
  <path class="fil1" d="M8985.91 2158.32c338.12,339.67 741.23,575.66 1209.31,707.94 290.73,76.39 578.07,148.2 861.99,215.45 -126.98,100.97 -214.5,231.62 -262.59,391.96 -54.02,260.52 -82.85,523.63 -86.52,789.31 45.96,84.37 115.34,135.3 208.1,152.78 374.41,-58.77 748.94,-113.06 1123.55,-162.87 8.74,63.93 13.06,128.28 12.99,193.06 -337.62,58.5 -675.76,115.52 -1014.4,171.05 -934.94,-332.5 -1701.91,-106.35 -2300.97,678.46 -181.46,287.7 -282.62,600.29 -303.42,937.73 -1088.94,163.66 -2176.81,338.36 -3263.57,524.11 -113.15,-171.5 -228.25,-344.76 -345.27,-519.79 -657.45,-666.26 -1418.9,-819.29 -2284.42,-459.12 -141.89,79.53 -276.73,170.06 -404.51,271.59 -119.81,18.37 -239.76,32.27 -359.86,41.67 -30.76,-10.29 -47.24,-34.38 -49.46,-72.3 -28.58,-180.64 -51.69,-360.75 -69.34,-540.3 1745.4,-292.62 3495.55,-577.83 5250.43,-855.62 178.19,2.64 285.07,-80.85 320.59,-250.41 -29.9,-193.75 -142.69,-275.38 -338.41,-244.86 -1756.78,299.39 -3515.99,583.88 -5277.71,853.58 -41.14,-206.51 -61.88,-418.42 -62.18,-635.8 813.46,-138.62 2195.86,-374.5 3012.59,-507.22 148.15,-61.17 206.69,-171.11 175.62,-329.88 -159.2,-847.57 -292.14,-1699.07 -398.81,-2554.43 1147.66,-182.11 1728.36,-265.78 2876.71,-451.51 222.66,-43.44 395.61,28.97 518.84,217.19 280.06,462.8 570.62,919.04 871.72,1368.7 121.92,45.04 248.26,68.22 378.97,69.52z"/>
  <path class="fil2" d="M7224.26 764.17c144.96,-15.53 255.26,38.45 330.9,161.97 318.65,508.66 637.33,1017.27 955.99,1525.93 66.09,168.49 15.97,288.24 -150.37,359.21 -1263.75,202.68 -1717.59,290.38 -2981.34,493.08 -125.36,-27 -192.66,-105.2 -201.97,-234.65 -87.91,-537.32 -175.75,-1074.42 -263.58,-1611.32 -32.34,-143.06 16.42,-244.61 146.29,-304.62 995.4,-164.44 1176.82,-217.62 2164.08,-389.6z"/>
  <path class="fil3" d="M6342.46 2646.51c-27.28,-2.05 -54.58,-4.09 -81.86,-6.13 22.01,-355.19 53.11,-709.6 93.3,-1063.22 12.86,-65.45 31.27,-128.12 55.22,-187.96 265.42,-60.18 532.96,-90.47 802.59,-90.86 223.64,363.62 452.79,723.78 687.5,1080.49 -513.24,112.93 -1032.17,202.16 -1556.75,267.68z"/>
  <path class="fil4" d="M6409.12 1389.2c-23.95,59.83 -42.36,122.51 -55.22,187.96 -40.19,353.61 -71.29,708.02 -93.3,1063.22 27.28,2.05 54.58,4.09 81.86,6.13 -140.63,23.08 -584.76,103.27 -731.57,131.85 -22.05,-10.79 -44.13,-21.6 -66.19,-32.39 -88.42,-394.33 -150.09,-792.26 -185.04,-1193.82 250.57,-31.88 800.7,-122.42 1049.46,-162.94z"/>
  <path class="fil5" d="M8985.91 2158.32c836.74,89.65 1669.83,202.33 2499.3,337.98 134.89,82.56 236.21,195.33 303.97,338.32 -152.35,57.76 -310.73,96.21 -475.14,115.38 -94.49,29.78 -180.09,73.67 -256.83,131.7 -283.92,-67.25 -571.26,-139.06 -861.99,-215.45 -468.08,-132.28 -871.2,-368.27 -1209.31,-707.94z"/>
  <path class="fil6" d="M11300.2 3868.23c-46.63,-62.08 -59.39,-136.21 -38.23,-222.39 0.81,-81.58 33.2,-147.76 97.18,-198.54 158.91,-53.17 321.85,-91.28 488.78,-114.35 24.97,12.98 41.79,32.55 50.49,58.66 22.17,128.38 35.4,257.42 39.63,387.14 -210.68,42.95 -423.27,72.76 -637.86,89.46z"/>
  <path class="fil7" d="M11261.97 3645.85c-21.16,86.17 -8.41,160.31 38.23,222.39 -21.18,23.23 -49.15,30.27 -83.9,21.17 -1.89,-88.32 13.32,-169.5 45.67,-243.56z"/>
  <path class="fil8" d="M8752.18 3814.74c323.42,23.74 403.83,171.51 241.22,443.4 -447.5,91.52 -897.19,172.21 -1349.01,242.04 -179.18,-49.98 -243.78,-164.58 -193.8,-343.8 25.07,-47.13 59.96,-85.68 104.7,-115.64 402.96,-69.4 801.91,-144.72 1196.89,-226z"/>
  <path class="fil9" d="M1657.55 5479.04c-310.51,69.07 -434.24,-49.95 -371.16,-357.07 90.77,-96.66 199.45,-143.42 326.06,-140.25 1761.72,-269.7 3520.94,-554.2 5277.71,-853.58 195.72,-30.52 308.51,51.11 338.41,244.86 -35.52,169.57 -142.4,253.05 -320.59,250.41 -1754.88,277.79 -3505.03,563 -5250.43,855.62z"/>
  <path class="fil10" d="M12683.18 4822.42c27.35,-0.32 49.4,10.5 66.17,32.39 35.51,222.18 69.19,444.23 101.07,666.15 -254.96,28.41 -509.17,64.27 -762.68,107.56 -116.85,-218.42 -261.76,-421.37 -434.66,-608.8 342.56,-77.57 685.91,-143.33 1030.1,-197.3z"/>
  <path class="fil11" d="M10122.89 4932.65c785.39,-18.33 1302.78,340.56 1552.17,1076.62 122.65,832.88 -207.79,1398.13 -991.31,1695.76 -669.4,138.62 -1198.02,-70.17 -1585.88,-626.36 -369.57,-770.63 -216.3,-1413.17 459.85,-1927.63 181.84,-96.62 370.24,-169.42 565.17,-218.39z"/>
  <path class="fil12" d="M1550.27 4345.93c0.3,217.38 21.04,429.29 62.18,635.8 -126.61,-3.18 -235.29,43.58 -326.06,140.25 -63.08,307.11 60.65,426.13 371.16,357.07 17.64,179.55 40.76,359.65 69.34,540.3 2.21,37.93 18.7,62.01 49.46,72.3 -229.29,43.76 -461.46,90.4 -696.51,139.96 -15.56,-6.9 -28.51,-17.03 -38.88,-30.35 -84.68,-583.9 -173.7,-1166.82 -267.01,-1748.78 258.92,-35.54 517.7,-71.04 776.32,-106.54z"/>
  <path class="fil9" d="M8013.52 4884.54c233.56,9.26 330,126.23 289.31,350.94 -27.16,57.44 -71.16,95.31 -131.99,113.61 -990.17,168 -1981.16,331.67 -2972.95,490.96 -290.96,37.69 -396.16,-84.53 -315.57,-366.63 36.29,-39.79 79.6,-68.54 129.94,-86.32 1006.81,-150.68 2007.23,-318.2 3001.26,-502.57z"/>
  <path class="fil2" d="M10397.25 5666.66c-1.99,65.8 -33.02,113.77 -93.09,143.96 -458.28,111.16 -602.52,388.5 -432.73,832.01 282.65,291.15 565.98,294.05 850.03,8.74 57.68,-74.55 86.91,-159.28 87.61,-254.14 2.18,-144.64 -23.97,-283.81 -78.51,-417.49 14.41,-67.83 46.12,-124.92 95.13,-171.25 236.14,-84.74 380.78,-0.76 433.92,252.01 113.62,617.26 -123.38,1034 -711,1250.25 -543.89,95.51 -936.09,-103.05 -1176.55,-595.72 -163.72,-607.28 38.23,-1044.96 605.94,-1313 132.03,-43.13 259.38,-33.6 382.02,28.6 40.58,73.43 53.01,152.09 37.22,236.04z"/>
  <path class="fil13" d="M10825.69 5808.48c-49.01,46.33 -80.72,103.43 -95.13,171.25 54.54,133.68 80.69,272.85 78.51,417.49 -0.7,94.86 -29.93,179.59 -87.61,254.14 -284.06,285.31 -567.38,282.41 -850.03,-8.74 -169.78,-443.51 -25.55,-720.85 432.73,-832.01 60.07,-30.19 91.11,-78.16 93.09,-143.96 26.11,-17.5 37.24,-44.11 33.42,-79.82 154.35,39.26 286.03,113.14 395.02,221.65z"/>
  <path class="fil11" d="M3150.97 6057.32c658.56,-42.15 1156.14,214.63 1492.78,770.31 285.64,722.53 126,1328.02 -478.96,1816.44 -521.99,296.56 -1043.19,294.13 -1563.61,-7.27 -510.2,-379.09 -705.73,-883.08 -586.59,-1512 181.81,-569.11 560.61,-924.94 1136.38,-1067.49z"/>
  <path class="fil2" d="M3313.4 6453.65c614.08,36.69 969.8,356.02 1067.11,957.98 -75.11,770.91 -498.35,1109.69 -1269.77,1016.34 -549.64,-223.56 -779.94,-629.57 -690.91,-1217.96 145.58,-435.96 443.44,-688.08 893.57,-756.36z"/>
  <path class="fil14" d="M13900.27 7199.97c-68.74,1084.11 82.49,1822.02 -38.09,2900.74 -169.38,460.66 -432.38,804.36 -916.71,889.36 -1691.69,6.93 -2306.7,-4.6 -4002.01,12.47 -2380.22,23.97 -5708.32,-5.61 -7381.69,-12.47 -348.84,-16.84 -652.52,-162.18 -839.36,-362.28 -268.08,-287.09 -331.73,-718.83 -391.09,-994.61 346.33,135.6 692.91,271.31 1039.74,407.11 105.79,-8.01 208.23,-32.35 307.32,-73.04 497,-208.11 996.78,-408.5 1499.38,-601.25 792.04,50.14 1584.1,100.25 2376.14,150.39 48.6,-9.29 95.45,-24.09 140.52,-44.37 328.28,-286.83 660.34,-568.39 996.22,-844.72 441.77,173.97 886.71,339.93 1334.81,497.81 71.41,23.64 144.16,29.08 218.3,16.34 785.39,-306.47 1571.82,-608.91 2359.25,-907.36 508.14,115.77 1016.29,231.57 1524.43,347.34 169.54,45.04 341.7,67.09 516.43,66.1 50.35,-17.78 93.65,-46.54 129.94,-86.33 324.78,-417.07 777.8,-968.9 1126.47,-1361.23z"/>
  <path class="fil10" d="M1628.39 6601.96c29,-1.91 55.95,4.65 80.84,19.76 -128.3,225.13 -201.27,466.65 -218.87,724.53 -232.97,28.67 -464.46,66.23 -694.46,112.67 -58.37,17.81 -112.61,9.16 -162.71,-25.9 -28.21,-194.52 -59.39,-388.94 -93.56,-583.26 4.88,-25.48 15.68,-47.53 32.39,-66.18 357.04,-52.42 709.16,-112.94 1056.37,-181.63z"/>
  <path class="fil13" d="M3276.65 6944.84c505.94,19.07 692.89,270.9 560.88,755.45 -154.5,253.43 -375.39,332.94 -662.72,238.54 -272.08,-157.94 -359.99,-388.63 -263.78,-692.06 87.01,-147.29 208.89,-247.94 365.62,-301.93z"/>
 </g>
</svg>
